<?xml version="1.0" encoding="UTF-8"?>
<svg xmlns="http://www.w3.org/2000/svg" width="800px" height="800px" viewBox="0 0 24 24" fill="none">
  <path fill-rule="evenodd" clip-rule="evenodd" d="M12 23C18.0751 23 23 18.0751 23 12C23 5.92487 18.0751 1 12 1C5.92487 1 1 5.92487 1 12C1 18.0751 5.92487 23 12 23ZM12 21C16.9706 21 21 16.9706 21 12C21 7.02944 16.9706 3 12 3C7.02944 3 3 7.02944 3 12C3 16.9706 7.02944 21 12 21Z" fill="#4285F4"/>
  <path fill-rule="evenodd" clip-rule="evenodd" d="M9.5 7.5C9.5 6.67157 10.1716 6 11 6H17C17.8284 6 18.5 6.67157 18.5 7.5V16.5C18.5 17.3284 17.8284 18 17 18H11C10.1716 18 9.5 17.3284 9.5 16.5V7.5ZM11 8H17V16.5H11V8Z" fill="#4285F4"/>
  <path fill-rule="evenodd" clip-rule="evenodd" d="M5.5 7.5C5.5 6.67157 6.17157 6 7 6H8C8.82843 6 9.5 6.67157 9.5 7.5V16.5C9.5 17.3284 8.82843 18 8 18H7C6.17157 18 5.5 17.3284 5.5 16.5V7.5ZM7 8H8V16.5H7V8Z" fill="#4285F4"/>
  <path d="M12 10H16V11H12V10Z" fill="#4285F4"/>
  <path d="M12 12H16V13H12V12Z" fill="#4285F4"/>
  <path d="M12 14H14V15H12V14Z" fill="#4285F4"/>
  <path fill-rule="evenodd" clip-rule="evenodd" d="M7.5 9.5C7.5 9.22386 7.72386 9 8 9C8.27614 9 8.5 9.22386 8.5 9.5C8.5 9.77614 8.27614 10 8 10C7.72386 10 7.5 9.77614 7.5 9.5Z" fill="#4285F4"/>
  <path fill-rule="evenodd" clip-rule="evenodd" d="M7.5 11.5C7.5 11.2239 7.72386 11 8 11C8.27614 11 8.5 11.2239 8.5 11.5C8.5 11.7761 8.27614 12 8 12C7.72386 12 7.5 11.7761 7.5 11.5Z" fill="#4285F4"/>
  <path fill-rule="evenodd" clip-rule="evenodd" d="M7.5 13.5C7.5 13.2239 7.72386 13 8 13C8.27614 13 8.5 13.2239 8.5 13.5C8.5 13.7761 8.27614 14 8 14C7.72386 14 7.5 13.7761 7.5 13.5Z" fill="#4285F4"/>
  <path fill-rule="evenodd" clip-rule="evenodd" d="M7.5 15.5C7.5 15.2239 7.72386 15 8 15C8.27614 15 8.5 15.2239 8.5 15.5C8.5 15.7761 8.27614 16 8 16C7.72386 16 7.5 15.7761 7.5 15.5Z" fill="#4285F4"/>
</svg> 